Coordinates
version=1
nRows=38
nColumns=12
inDegrees=yes

Units are S.I. units (second, meters, Newtons, ...)
Angles are in degrees

endheader
time	SC_y	SC_z	SC_x	AC_y	AC_z	AC_x	GH_y	GH_z	GH_yy	EL_x	PS_y
       0.0              -13.98          36.57          12.21           44.5         -8.693         -7.568          15.56          72.57          64.42          66.63          109.0
   0.01976              -13.99          36.57          12.22           44.5         -8.693         -7.567          15.58          72.57          64.39          66.63          109.0
   0.03952              -13.99          36.56          12.22          44.51         -8.692         -7.566           15.6          72.57          64.37          66.63          108.9
   0.05929               -14.0          36.55          12.22          44.51         -8.692         -7.565          15.63          72.57          64.34          66.63          108.9
   0.07905               -14.0          36.55          12.22          44.52         -8.691         -7.563          15.65          72.57          64.32          66.64          108.9
   0.09881              -14.01          36.54          12.22          44.52          -8.69         -7.562          15.68          72.57          64.29          66.64          108.9
    0.1186              -14.01          36.53          12.22          44.53          -8.69          -7.56          15.71          72.57          64.25          66.64          108.9
    0.1383              -14.02          36.52          12.23          44.53         -8.689         -7.559          15.74          72.57          64.22          66.65          108.9
    0.1581              -14.03          36.51          12.23          44.54         -8.688         -7.557          15.77          72.57          64.18          66.65          108.9
    0.1779              -14.03           36.5          12.23          44.54         -8.687         -7.555          15.81          72.57          64.14          66.65          108.9
    0.1976              -14.04          36.49          12.24          44.55         -8.686         -7.553          15.84          72.57           64.1          66.66          108.9
    0.2174              -14.05          36.48          12.24          44.56         -8.685         -7.551          15.88          72.57          64.06          66.66          108.8
    0.2371              -14.06          36.47          12.24          44.56         -8.684         -7.549          15.93          72.57          64.01          66.67          108.8
    0.2569              -14.07          36.46          12.25          44.57         -8.683         -7.546          15.98          72.57          63.95          66.67          108.8
    0.2767              -14.08          36.44          12.25          44.58         -8.682         -7.544          16.03          72.57           63.9          66.68          108.8
    0.2964              -14.09          36.43          12.25          44.59         -8.681         -7.541          16.08          72.57          63.83          66.68          108.8
    0.3162              -14.11          36.41          12.26           44.6         -8.679         -7.537          16.14          72.57          63.77          66.69          108.7
     0.336              -14.12          36.39          12.26          44.61         -8.678         -7.534          16.21          72.57          63.69          66.69          108.7
    0.3557              -14.14          36.37          12.27          44.63         -8.676          -7.53          16.28          72.57          63.61           66.7          108.7
    0.3755              -14.15          36.35          12.28          44.64         -8.674         -7.526          16.36          72.57          63.53          66.71          108.6
    0.3952              -14.17          36.33          12.28          44.65         -8.672         -7.522          16.45          72.57          63.43          66.72          108.6
     0.415              -14.19           36.3          12.29          44.67          -8.67         -7.517          16.54          72.57          63.32          66.73          108.6
    0.4348              -14.21          36.27           12.3          44.69         -8.667         -7.511          16.65          72.58          63.21          66.74          108.5
    0.4545              -14.24          36.24          12.31          44.71         -8.664         -7.505          16.77          72.58          63.08          66.75          108.5
    0.4743              -14.27           36.2          12.32          44.73         -8.661         -7.498           16.9          72.58          62.93          66.77          108.4
    0.4941               -14.3          36.16          12.33          44.76         -8.658          -7.49          17.04          72.58          62.77          66.78          108.4
    0.5138              -14.33          36.12          12.34          44.79         -8.654         -7.482           17.2          72.58          62.59           66.8          108.3
    0.5336              -14.37          36.07          12.36          44.82          -8.65         -7.472          17.39          72.58          62.39          66.82          108.2
    0.5533              -14.42          36.01          12.37          44.85         -8.645         -7.462          17.59          72.58          62.16          66.84          108.2
    0.5731              -14.47          35.95          12.39          44.89         -8.639         -7.449          17.83          72.58           61.9          66.86          108.1
    0.5929              -14.52          35.87          12.41          44.94         -8.633         -7.435          18.09          72.58           61.6          66.89          108.0
    0.6126              -14.59          35.79          12.43          44.99         -8.625         -7.419           18.4          72.58          61.26          66.92          107.8
    0.6324              -14.66          35.69          12.46          45.06         -8.617         -7.401          18.76          72.58          60.86          66.96          107.7
    0.6522              -14.75          35.58          12.49          45.13         -8.607         -7.379          19.17          72.58          60.41           67.0          107.5
    0.6719              -14.86          35.44          12.53          45.21         -8.596         -7.354          19.65          72.58          59.87          67.05          107.4
    0.6917              -14.98          35.29          12.58          45.31         -8.582         -7.324          20.22          72.58          59.24          67.11          107.1
    0.7114              -15.12           35.1          12.63          45.43         -8.566         -7.289          20.89          72.58          58.49          67.18          106.9
    0.7312              -15.29          34.88          12.69          45.57         -8.547         -7.246           21.7          72.59          57.59          67.26          106.5
